<?xml version="1.0" encoding="UTF-8" standalone="no"?>
<!-- Created with Inkscape (http://www.inkscape.org/) -->

<svg
   width="24.199781mm"
   height="5.3000159mm"
   viewBox="0 0 24.199781 5.3000159"
   version="1.1"
   id="svg1"
   xml:space="preserve"
   xmlns="http://www.w3.org/2000/svg"
   xmlns:svg="http://www.w3.org/2000/svg"><defs
     id="defs1" /><g
     id="layer1"
     transform="translate(-74.945123,-118.80513)"><path
       style="font-weight:800;font-size:5.38258px;line-height:1;font-family:Montserrat;-inkscape-font-specification:'Montserrat Ultra-Bold';text-align:center;letter-spacing:0px;text-anchor:middle;fill:#ffffff;stroke-width:0.203437;stroke-linecap:round;stroke-linejoin:round"
       d="m 82.633534,123.47627 q -0.484432,0 -0.866595,-0.19377 -0.376781,-0.19378 -0.592084,-0.53288 -0.215303,-0.34448 -0.215303,-0.78585 0,-0.44138 0.215303,-0.78048 0.215303,-0.3391 0.592084,-0.52749 0.382163,-0.19377 0.866595,-0.19377 0.495198,0 0.855831,0.20992 0.360632,0.20992 0.511345,0.59208 l -0.79124,0.40369 q -0.102269,-0.20453 -0.252981,-0.29604 -0.150712,-0.0969 -0.328337,-0.0969 -0.177625,0 -0.322955,0.0807 -0.14533,0.0807 -0.231451,0.23684 -0.08074,0.15071 -0.08074,0.3714 0,0.22606 0.08074,0.38216 0.08612,0.15609 0.231451,0.23683 0.14533,0.0807 0.322955,0.0807 0.177625,0 0.328337,-0.0915 0.150712,-0.0969 0.252981,-0.30143 l 0.79124,0.4037 q -0.150713,0.38216 -0.511345,0.59208 -0.360633,0.20992 -0.855831,0.20992 z m 1.744705,-0.0484 v -3.99388 h 1.02269 v 1.90544 l -0.236834,-0.24222 q 0.16686,-0.31757 0.45752,-0.47367 0.290659,-0.16147 0.656674,-0.16147 0.339103,0 0.613614,0.13994 0.274512,0.13457 0.430607,0.41984 0.161477,0.28528 0.161477,0.73742 v 1.6686 h -1.02269 v -1.50174 q 0,-0.31219 -0.129182,-0.45214 -0.123799,-0.14533 -0.349868,-0.14533 -0.161477,0 -0.296041,0.0754 -0.134565,0.07 -0.209921,0.22068 -0.07536,0.15071 -0.07536,0.39293 v 1.41024 z m 5.247466,0.0484 q -0.479049,0 -0.850447,-0.19377 -0.371398,-0.19378 -0.586701,-0.53288 -0.209921,-0.34448 -0.209921,-0.78585 0,-0.44138 0.209921,-0.78048 0.215303,-0.3391 0.586701,-0.52749 0.371398,-0.19377 0.850447,-0.19377 0.47905,0 0.850448,0.19377 0.376781,0.18839 0.586701,0.52749 0.209921,0.3391 0.209921,0.78048 0,0.44137 -0.209921,0.78585 -0.20992,0.3391 -0.586701,0.53288 -0.371398,0.19377 -0.850448,0.19377 z m 0,-0.81277 q 0.177626,0 0.31219,-0.0807 0.139947,-0.0807 0.220686,-0.23683 0.08074,-0.16148 0.08074,-0.38216 0,-0.22069 -0.08074,-0.3714 -0.08074,-0.1561 -0.220686,-0.23684 -0.134564,-0.0807 -0.31219,-0.0807 -0.172242,0 -0.312189,0.0807 -0.134565,0.0807 -0.220686,0.23684 -0.08074,0.15071 -0.08074,0.3714 0,0.22068 0.08074,0.38216 0.08612,0.15609 0.220686,0.23683 0.139947,0.0807 0.312189,0.0807 z m 3.423323,0.81277 q -0.559788,0 -0.871978,-0.27451 -0.31219,-0.2799 -0.31219,-0.83968 v -2.5029 h 1.02269 v 2.49213 q 0,0.1561 0.08612,0.2476 0.08612,0.0861 0.220686,0.0861 0.183007,0 0.312189,-0.0915 l 0.252981,0.71588 q -0.129182,0.0861 -0.317572,0.1238 -0.18839,0.0431 -0.392928,0.0431 z m -1.609392,-2.20686 v -0.75894 h 2.115354 v 0.75894 z m 3.956581,2.20686 q -0.559788,0 -0.871978,-0.27451 -0.31219,-0.2799 -0.31219,-0.83968 v -2.5029 h 1.02269 v 2.49213 q 0,0.1561 0.08612,0.2476 0.08612,0.0861 0.220685,0.0861 0.183008,0 0.31219,-0.0915 l 0.252981,0.71588 q -0.129182,0.0861 -0.317572,0.1238 -0.18839,0.0431 -0.392928,0.0431 z m -1.609392,-2.20686 v -0.75894 h 2.115354 v 0.75894 z m 4.405366,2.15842 v -0.54364 l -0.06997,-0.13457 v -1.00116 q 0,-0.24221 -0.150712,-0.3714 -0.14533,-0.13456 -0.468285,-0.13456 -0.20992,0 -0.425224,0.07 -0.215303,0.0646 -0.366015,0.18301 L 96.3675,120.80116 q 0.247599,-0.16148 0.592084,-0.2476 0.349867,-0.0915 0.694353,-0.0915 0.7105,0 1.098046,0.32833 0.392928,0.32296 0.392928,1.01731 v 1.62016 z m -0.861213,0.0484 q -0.349868,0 -0.592084,-0.11842 -0.242216,-0.11841 -0.371398,-0.32295 -0.123799,-0.20454 -0.123799,-0.45752 0,-0.26913 0.134564,-0.4629 0.139947,-0.19916 0.425224,-0.30143 0.285277,-0.10765 0.737413,-0.10765 h 0.688971 v 0.53288 h -0.549024 q -0.247598,0 -0.349867,0.0807 -0.09689,0.0807 -0.09689,0.2153 0,0.13456 0.102269,0.2153 0.102269,0.0807 0.279894,0.0807 0.16686,0 0.301425,-0.0807 0.139947,-0.0861 0.204538,-0.25836 l 0.139947,0.37678 q -0.08074,0.30142 -0.317572,0.45752 -0.231451,0.15071 -0.613614,0.15071 z"
       id="text2-3-4"
       aria-label="chotta" /><path
       style="fill:#ffffff;stroke:none;stroke-width:1.11455"
       d="m 78.346985,118.81237 c -0.292308,0.0297 -0.567096,0.11348 -0.816416,0.27124 -1.033148,0.65371 -1.083792,2.21435 -0.08302,2.92458 0.167951,0.11919 0.354438,0.21103 0.553502,0.26502 0.196233,0.0532 0.405488,0.0821 0.608853,0.063 0.291083,-0.0271 0.567235,-0.10889 0.816415,-0.26397 1.038527,-0.64626 1.104248,-2.20153 0.110702,-2.92335 -0.1708,-0.12408 -0.363534,-0.21997 -0.56734,-0.27628 -0.19943,-0.0551 -0.416294,-0.0813 -0.622689,-0.0602 m -0.02767,0.593 c 0.183152,-0.0223 0.378766,-0.008 0.553501,0.052 0.950227,0.32209 1.063675,1.67932 0.179888,2.15393 -0.123622,0.0663 -0.261584,0.11351 -0.401288,0.13055 -0.183151,0.0223 -0.378772,0.008 -0.553502,-0.052 -0.950712,-0.32227 -1.05732,-1.6569 -0.193726,-2.14516 0.126984,-0.0718 0.269885,-0.12162 0.415127,-0.13932 m 0.152211,0.61983 c -0.06006,0.0112 -0.111448,0.0798 -0.152211,0.12034 -0.097,0.0965 -0.194424,0.19253 -0.290422,0.28997 -0.03742,0.0379 -0.104308,0.0912 -0.09305,0.15188 0.01932,0.10411 0.186952,0.21816 0.25894,0.28999 0.0628,0.0626 0.203986,0.26316 0.304426,0.24458 0.06006,-0.0112 0.111449,-0.0798 0.152213,-0.12033 0.09699,-0.0965 0.194422,-0.19253 0.290419,-0.28996 0.03742,-0.0379 0.10431,-0.0912 0.09306,-0.15189 -0.01933,-0.1041 -0.186953,-0.21814 -0.25894,-0.28997 -0.06279,-0.0626 -0.203987,-0.26316 -0.304427,-0.24461 m -0.678039,2.79922 c -0.202095,0.3487 -0.49976,0.62417 -0.91328,0.68306 -0.999798,0.14237 -1.711513,-1.02479 -1.127156,-1.843 0.125312,-0.17547 0.292679,-0.2942 0.476792,-0.40045 -0.04087,-0.13071 -0.0713,-0.26454 -0.08859,-0.40046 -0.0052,-0.0414 0.0036,-0.12869 -0.03724,-0.15434 -0.0899,-0.0566 -0.34318,0.13856 -0.413827,0.18759 -0.383935,0.2665 -0.648814,0.6944 -0.722541,1.15431 -0.213869,1.33406 1.13366,2.42321 2.396886,1.93527 0.349821,-0.13512 0.653242,-0.38913 0.851439,-0.7063 0.03868,-0.0618 0.181055,-0.25478 0.133477,-0.33011 -0.02572,-0.0407 -0.113332,-0.0319 -0.154665,-0.0372 -0.136198,-0.0172 -0.270316,-0.0477 -0.401286,-0.0884 m -0.664204,-0.33142 c -0.219911,-0.14593 -0.425378,-0.34302 -0.567339,-0.56615 -0.109754,0.0655 -0.373083,0.26984 -0.397315,0.40045 -0.01126,0.0606 0.05564,0.11392 0.09305,0.15189 0.10056,0.10211 0.20243,0.20295 0.304258,0.30373 0.03868,0.0383 0.09187,0.10789 0.152214,0.10789 0.05525,0 0.102646,-0.0591 0.138374,-0.0942 0.09637,-0.0945 0.206892,-0.1872 0.276751,-0.30362 z"
       id="path2-1-5" /></g></svg>
