<?xml version="1.0" encoding="UTF-8" standalone="no"?>
<!-- Created with Inkscape (http://www.inkscape.org/) -->

<svg
   width="24.199863mm"
   height="5.3221965mm"
   viewBox="0 0 24.199863 5.3221965"
   version="1.1"
   id="svg1"
   xml:space="preserve"
   xmlns:xlink="http://www.w3.org/1999/xlink"
   xmlns="http://www.w3.org/2000/svg"
   xmlns:svg="http://www.w3.org/2000/svg"><defs
     id="defs1"><linearGradient
       id="linearGradient4"><stop
         style="stop-color:#4f46e5;stop-opacity:1;"
         offset="0"
         id="stop4" /><stop
         style="stop-color:#3227b0;stop-opacity:1;"
         offset="1"
         id="stop5" /></linearGradient><linearGradient
       xlink:href="#linearGradient4"
       id="linearGradient5"
       x1="75.024895"
       y1="110.03402"
       x2="99.944603"
       y2="115.73748"
       gradientUnits="userSpaceOnUse" /></defs><g
     id="layer1"
     transform="translate(-74.803392,-109.75399)"><path
       id="text2-3-4-0"
       style="font-weight:800;font-size:5.38258px;line-height:1;font-family:Montserrat;-inkscape-font-specification:'Montserrat Ultra-Bold';text-align:center;letter-spacing:0px;text-anchor:middle;fill:url(#linearGradient5);stroke-width:0.203437;stroke-linecap:round;stroke-linejoin:round"
       d="m 78.361625,109.75402 c -0.05247,-3.5e-4 -0.104464,0.002 -0.156063,0.007 -0.292308,0.0297 -0.567167,0.11354 -0.816487,0.2713 -1.033148,0.65371 -1.083971,2.21466 -0.0832,2.92489 0.167951,0.11919 0.35439,0.21059 0.553454,0.26458 0.196233,0.0532 0.4059,0.0821 0.609265,0.063 0.291083,-0.0271 0.566791,-0.10898 0.815971,-0.26406 1.038527,-0.64626 1.104651,-2.20152 0.111105,-2.92334 -0.1708,-0.12408 -0.363602,-0.21964 -0.567408,-0.27595 -0.149572,-0.0413 -0.309224,-0.0666 -0.466638,-0.0677 z m -0.04444,0.59067 c 0.140475,-0.003 0.282877,0.0165 0.413929,0.0615 0.950227,0.32209 1.063621,1.67978 0.179834,2.15439 -0.123622,0.0663 -0.261305,0.11319 -0.401009,0.13023 -0.183151,0.0223 -0.378725,0.008 -0.553455,-0.0517 -0.950712,-0.32227 -1.057381,-1.65735 -0.193787,-2.14561 0.126984,-0.0718 0.26972,-0.12131 0.414962,-0.13901 0.04579,-0.006 0.0927,-0.009 0.139526,-0.01 z m 0.03204,0.62838 c -0.0066,-4.6e-4 -0.01284,-1.2e-4 -0.01912,10e-4 -0.06006,0.0112 -0.111683,0.0799 -0.152446,0.12041 -0.097,0.0965 -0.194423,0.19247 -0.290421,0.28991 -0.03742,0.0379 -0.104276,0.0912 -0.09302,0.15192 0.01932,0.10411 0.186911,0.21808 0.258899,0.28991 0.0628,0.0626 0.203934,0.26353 0.304374,0.24495 0.06006,-0.0112 0.111682,-0.0799 0.152446,-0.12041 0.09699,-0.0965 0.194424,-0.19248 0.290421,-0.28991 0.03742,-0.0379 0.104268,-0.0912 0.09302,-0.15192 -0.01933,-0.1041 -0.186912,-0.21808 -0.258899,-0.28991 -0.05887,-0.0587 -0.186752,-0.239 -0.285254,-0.24598 z m 5.887496,0.061 v 3.99407 h 1.022676 v -1.41025 c 0,-0.16148 0.02521,-0.29278 0.07545,-0.39326 0.05024,-0.10045 0.120096,-0.17399 0.209806,-0.22065 0.08971,-0.0503 0.188455,-0.0755 0.296106,-0.0755 0.150713,0 0.267317,0.0488 0.34985,0.14573 0.08612,0.0933 0.129191,0.24352 0.129191,0.45165 v 1.50223 h 1.022676 v -1.66863 c 0,-0.30143 -0.0541,-0.54724 -0.161747,-0.73742 -0.104063,-0.19018 -0.247457,-0.33042 -0.430465,-0.42013 -0.183007,-0.0933 -0.38733,-0.14005 -0.613399,-0.14005 -0.24401,0 -0.463035,0.0541 -0.656807,0.16175 -0.08139,0.0437 -0.153831,0.099 -0.220659,0.16175 v -1.35134 z m 7.486364,0.4253 v 0.65112 h -0.42478 v 0.75913 h 0.42478 v 1.09244 c 0,0.37318 0.104516,0.65314 0.312643,0.83974 0.208127,0.183 0.498589,0.2744 0.871781,0.2744 0.136359,0 0.267148,-0.0142 0.392741,-0.0429 0.125594,-0.0251 0.231689,-0.0666 0.31781,-0.12402 l -0.253214,-0.71572 c -0.08612,0.061 -0.190121,0.0915 -0.312126,0.0915 -0.08971,0 -0.163245,-0.0289 -0.220658,-0.0863 -0.05741,-0.061 -0.0863,-0.14346 -0.0863,-0.24753 v -1.08158 h 0.66766 v -0.75913 h -0.66766 v -0.65112 z m 2.347661,0 v 0.65112 h -0.425297 v 0.75913 h 0.425297 v 1.09244 c 0,0.37318 0.103999,0.65314 0.312125,0.83974 0.208127,0.183 0.49859,0.2744 0.871782,0.2744 0.136359,0 0.267147,-0.0142 0.392741,-0.0429 0.125593,-0.0251 0.231686,-0.0666 0.31781,-0.12402 l -0.253215,-0.71572 c -0.08612,0.061 -0.19012,0.0915 -0.312125,0.0915 -0.08971,0 -0.163245,-0.0289 -0.220659,-0.0863 -0.05741,-0.061 -0.08578,-0.14346 -0.08578,-0.24753 v -1.08158 h 0.667143 v -0.75913 H 95.09342 v -0.65112 z m -18.148763,0.18862 c -0.109671,1e-4 -0.311288,0.15501 -0.373104,0.19792 -0.383935,0.2665 -0.649226,0.69454 -0.722953,1.15445 -0.213869,1.33406 1.134043,2.42322 2.397269,1.93528 0.349821,-0.13512 0.652914,-0.38925 0.851111,-0.70642 0.03868,-0.0618 0.18142,-0.25488 0.133842,-0.33021 -0.02572,-0.0407 -0.113696,-0.0319 -0.155029,-0.0372 -0.136198,-0.0172 -0.270039,-0.0477 -0.401009,-0.0884 -0.202095,0.3487 -0.50012,0.62427 -0.91364,0.68316 -0.999798,0.14237 -1.71142,-1.02509 -1.127063,-1.8433 0.125312,-0.17547 0.292861,-0.29372 0.476974,-0.39997 -0.04087,-0.13071 -0.07159,-0.26458 -0.08888,-0.4005 -0.0052,-0.0414 0.0036,-0.12886 -0.03721,-0.15451 -0.01124,-0.007 -0.02464,-0.0104 -0.04031,-0.0103 z m 6.570141,0.41392 c -0.322954,0 -0.611838,0.0646 -0.866613,0.19379 -0.251188,0.12559 -0.448677,0.30155 -0.592212,0.52762 -0.143536,0.22606 -0.215491,0.48606 -0.215491,0.78031 0,0.29425 0.07195,0.55635 0.215491,0.786 0.143535,0.22607 0.341024,0.4036 0.592212,0.53278 0.254775,0.12918 0.543659,0.19379 0.866613,0.19379 0.330132,0 0.61534,-0.0699 0.855762,-0.20981 0.240421,-0.13994 0.410605,-0.33743 0.51108,-0.59221 L 83.0678,113.87059 c -0.06818,0.13635 -0.152223,0.23667 -0.252698,0.30127 -0.100475,0.061 -0.210245,0.0915 -0.328662,0.0915 -0.118417,0 -0.226091,-0.0268 -0.322978,-0.0806 -0.09689,-0.0538 -0.174097,-0.13261 -0.23151,-0.23667 -0.05383,-0.10407 -0.08061,-0.2317 -0.08061,-0.38241 0,-0.14713 0.02679,-0.27056 0.08061,-0.37104 0.05741,-0.10409 0.134624,-0.18339 0.23151,-0.23719 0.09689,-0.0538 0.204561,-0.0806 0.322978,-0.0806 0.118417,0 0.228187,0.0326 0.328662,0.0972 0.100475,0.061 0.184519,0.15923 0.252698,0.29558 l 0.791166,-0.40359 c -0.100475,-0.25477 -0.270659,-0.45226 -0.51108,-0.59221 -0.240422,-0.13995 -0.52563,-0.20981 -0.855762,-0.20981 z m 6.991822,0 c -0.319366,0 -0.602479,0.0646 -0.850078,0.19379 -0.247598,0.12559 -0.443509,0.30155 -0.587044,0.52762 -0.139947,0.22606 -0.209806,0.48606 -0.209806,0.78031 0,0.29425 0.06986,0.55635 0.209806,0.786 0.143535,0.22607 0.339446,0.4036 0.587044,0.53278 0.247599,0.12918 0.530712,0.19379 0.850078,0.19379 0.319366,0 0.602995,-0.0646 0.850594,-0.19379 0.251187,-0.12918 0.446581,-0.30671 0.586527,-0.53278 0.139948,-0.22965 0.210323,-0.49175 0.210323,-0.786 0,-0.29425 -0.07037,-0.55425 -0.210323,-0.78031 -0.139946,-0.22607 -0.33534,-0.40203 -0.586527,-0.52762 -0.247599,-0.12918 -0.531228,-0.19379 -0.850594,-0.19379 z m 8.02845,0 c -0.22966,0 -0.461291,0.0305 -0.694531,0.0915 -0.22966,0.0574 -0.426629,0.14039 -0.591695,0.24805 l 0.344165,0.69401 c 0.100473,-0.0789 0.222336,-0.13987 0.365869,-0.18293 0.14354,-0.0467 0.28535,-0.0698 0.425297,-0.0698 0.2153,0 0.371302,0.0447 0.468188,0.13436 0.09092,0.0779 0.138637,0.1885 0.147278,0.32815 h -0.577742 c -0.301427,0 -0.547243,0.0362 -0.737423,0.108 -0.190187,0.0682 -0.331997,0.1685 -0.425297,0.30128 -0.08971,0.12918 -0.134359,0.2836 -0.134359,0.46302 0,0.16865 0.04149,0.32097 0.124024,0.45733 0.08612,0.13636 0.209557,0.24404 0.371037,0.32298 0.161473,0.0789 0.358965,0.11834 0.592212,0.11834 0.254773,0 0.459099,-0.0504 0.613399,-0.1509 0.107357,-0.0707 0.18881,-0.16559 0.248047,-0.28111 v 0.38343 h 0.952396 v -1.62005 c 0,-0.4629 -0.130787,-0.80169 -0.392741,-1.01699 -0.25836,-0.21889 -0.624457,-0.32867 -1.098124,-0.32867 z m -8.02845,0.81287 c 0.118417,0 0.222933,0.0268 0.312642,0.0806 0.0933,0.0538 0.166832,0.13313 0.220658,0.23719 0.05383,0.10048 0.08062,0.22391 0.08062,0.37104 0,0.14712 -0.02679,0.27475 -0.08062,0.38241 -0.05383,0.10408 -0.12736,0.18287 -0.220658,0.23667 -0.08971,0.0538 -0.194225,0.0806 -0.312642,0.0806 -0.114828,0 -0.218828,-0.0268 -0.312126,-0.0806 -0.08971,-0.0538 -0.163245,-0.13261 -0.220658,-0.23667 -0.05383,-0.10766 -0.08062,-0.23529 -0.08062,-0.38241 0,-0.14713 0.02679,-0.27056 0.08062,-0.37104 0.05741,-0.10409 0.130948,-0.18339 0.220658,-0.23719 0.0933,-0.0538 0.197298,-0.0806 0.312126,-0.0806 z m -13.063286,0.001 c -0.109754,0.0655 -0.373159,0.26988 -0.397391,0.40049 -0.01126,0.0606 0.05561,0.11396 0.09302,0.15193 0.10056,0.10211 0.202546,0.20308 0.304374,0.30386 0.03868,0.0383 0.09158,0.10748 0.151929,0.10748 0.05525,0 0.102765,-0.059 0.138493,-0.0941 0.09637,-0.0945 0.20661,-0.18692 0.276469,-0.30334 -0.219911,-0.14593 -0.42493,-0.34324 -0.566891,-0.56637 z m 21.118608,0.96221 h 0.441317 v 0.25322 c -0.04307,0.11484 -0.111346,0.20098 -0.204639,0.25838 -0.08971,0.0538 -0.190034,0.0806 -0.301274,0.0806 -0.118413,0 -0.211906,-0.0268 -0.280086,-0.0806 -0.06818,-0.0538 -0.101802,-0.12578 -0.101802,-0.21549 0,-0.0897 0.03203,-0.16118 0.09664,-0.21498 0.06818,-0.0538 0.184782,-0.0811 0.349849,-0.0811 z" /></g></svg>
