<?xml version="1.0" encoding="UTF-8" standalone="no"?>
<!-- Created with Inkscape (http://www.inkscape.org/) -->

<svg
   width="25.686609mm"
   height="6.372447mm"
   viewBox="0 0 25.686609 6.372447"
   version="1.1"
   id="svg1"
   xml:space="preserve"
   xmlns="http://www.w3.org/2000/svg"
   xmlns:svg="http://www.w3.org/2000/svg"><defs
     id="defs1" /><g
     id="layer1"
     transform="translate(-77.51024,-140.5558)"><path
       id="path2-3"
       style="fill:#ffffff;stroke:none;stroke-width:1.11632"
       d="m 81.07055,140.55598 c -0.0525,-3.6e-4 -0.104953,0.002 -0.156579,0.007 -0.292466,0.0298 -0.56755,0.11365 -0.817005,0.27182 -1.033708,0.65543 -1.084001,2.22054 -0.08268,2.93264 0.168042,0.1195 0.354282,0.21148 0.553454,0.26561 0.196339,0.0533 0.405791,0.0822 0.609266,0.0631 0.291241,-0.0272 0.567689,-0.1091 0.817004,-0.26458 1.03909,-0.64796 1.104673,-2.20737 0.110588,-2.93109 -0.170892,-0.1244 -0.363492,-0.22053 -0.567408,-0.27699 -0.149653,-0.0415 -0.309138,-0.0666 -0.466638,-0.0677 z m -0.04496,0.59221 c 0.14055,-0.003 0.283323,0.0169 0.414445,0.062 0.950742,0.32293 1.064616,1.6837 0.18035,2.15956 -0.123689,0.0665 -0.261745,0.11365 -0.401525,0.13074 -0.18325,0.0224 -0.379147,0.008 -0.553972,-0.0522 -0.951227,-0.32312 -1.057848,-1.66124 -0.193786,-2.15078 0.127053,-0.072 0.270158,-0.12177 0.415478,-0.13952 0.04581,-0.006 0.09216,-0.009 0.13901,-0.01 z m 0.03256,0.62993 c -0.0066,-4.6e-4 -0.01336,-1.2e-4 -0.01964,0.001 -0.06009,0.0112 -0.111144,0.0803 -0.151929,0.12092 -0.09705,0.0967 -0.194888,0.19272 -0.290938,0.29042 -0.03744,0.038 -0.104283,0.0916 -0.09302,0.15245 0.01933,0.10438 0.186872,0.21892 0.258899,0.29094 0.06283,0.0628 0.204396,0.26356 0.304891,0.24494 0.06009,-0.0112 0.11166,-0.0797 0.152446,-0.1204 0.09704,-0.0967 0.194372,-0.19326 0.290421,-0.29094 0.03744,-0.038 0.104274,-0.091 0.09302,-0.15193 -0.01934,-0.10438 -0.186873,-0.21892 -0.258899,-0.29094 -0.05889,-0.0589 -0.186698,-0.2395 -0.285254,-0.2465 z m 5.868892,0.0636 v 3.99407 h 1.022677 v -1.41025 c 0,-0.16148 0.02521,-0.29279 0.07545,-0.39326 0.05024,-0.10047 0.120097,-0.17401 0.209807,-0.22066 0.08971,-0.0502 0.188454,-0.0749 0.296106,-0.0749 0.150712,0 0.267316,0.0483 0.349849,0.14521 0.08612,0.0933 0.129191,0.24404 0.129191,0.45217 v 1.50172 h 1.022677 v -1.66863 c 0,-0.30143 -0.05358,-0.54724 -0.161231,-0.73743 -0.104063,-0.19018 -0.247457,-0.33042 -0.430464,-0.42013 -0.183008,-0.0933 -0.387848,-0.13952 -0.613916,-0.13952 -0.244011,0 -0.463035,0.0536 -0.656808,0.16123 -0.08153,0.0438 -0.153736,0.0994 -0.220658,0.16226 v -1.35185 z m 7.486882,0.42529 v 0.65113 h -0.425297 v 0.75912 h 0.425297 v 1.09244 c 0,0.37319 0.103999,0.65315 0.312125,0.83974 0.208127,0.18301 0.49859,0.27492 0.871782,0.27492 0.136359,0 0.267664,-0.0147 0.393257,-0.0434 0.125594,-0.0251 0.231172,-0.0661 0.317294,-0.12351 l -0.252698,-0.71624 c -0.08612,0.061 -0.19012,0.0915 -0.312126,0.0915 -0.08971,0 -0.163761,-0.0284 -0.221175,-0.0858 -0.05741,-0.061 -0.08578,-0.14347 -0.08578,-0.24753 v -1.08211 h 0.667143 v -0.75912 h -0.667148 v -0.65113 z m 2.347143,0 v 0.65113 h -0.425299 v 0.75912 h 0.425297 v 1.09244 c 0,0.37319 0.104,0.65315 0.312126,0.83974 0.208126,0.18301 0.498589,0.27492 0.871781,0.27492 0.136359,0 0.267665,-0.0147 0.393258,-0.0434 0.125594,-0.0251 0.231172,-0.0661 0.317293,-0.12351 l -0.252697,-0.71624 c -0.08612,0.061 -0.190121,0.0915 -0.312126,0.0915 -0.08971,0 -0.163244,-0.0284 -0.220658,-0.0858 -0.05742,-0.061 -0.0863,-0.14347 -0.0863,-0.24753 v -1.08211 h 0.667143 v -0.75912 h -0.667143 v -0.65113 z m -18.131709,0.18811 c -0.109732,1.3e-4 -0.311772,0.1549 -0.373621,0.19792 -0.384143,0.2672 -0.649186,0.69643 -0.722953,1.15755 -0.213985,1.33757 1.134393,2.42968 2.398303,1.94045 0.350011,-0.13547 0.65384,-0.38996 0.852144,-0.70797 0.0387,-0.062 0.180928,-0.25571 0.133325,-0.33124 -0.02573,-0.0408 -0.113157,-0.0319 -0.154512,-0.0372 -0.136272,-0.0173 -0.270485,-0.0481 -0.401526,-0.0889 -0.202204,0.34962 -0.500412,0.62619 -0.914156,0.68523 -1.00034,0.14275 -1.712254,-1.02758 -1.12758,-1.84795 0.12538,-0.17593 0.292761,-0.29499 0.476974,-0.40152 -0.04089,-0.13105 -0.07107,-0.26526 -0.08837,-0.40153 -0.0052,-0.0415 0.0031,-0.12931 -0.03772,-0.15503 -0.01124,-0.007 -0.02463,-0.01 -0.04031,-0.01 z m 6.553088,0.41496 c -0.322955,0 -0.611838,0.0646 -0.866614,0.19378 -0.251187,0.1256 -0.448676,0.30103 -0.592212,0.5271 -0.143535,0.22607 -0.214974,0.48659 -0.214974,0.78083 0,0.29425 0.07144,0.55583 0.214974,0.78549 0.143536,0.22606 0.341025,0.40411 0.592212,0.5333 0.254776,0.12918 0.543659,0.19378 0.866614,0.19378 0.330131,0 0.61534,-0.0704 0.855762,-0.21032 0.240422,-0.13995 0.411121,-0.33692 0.511596,-0.59169 l -0.791166,-0.40411 c -0.06818,0.13635 -0.15274,0.23719 -0.253214,0.30179 -0.100475,0.061 -0.209729,0.0915 -0.328146,0.0915 -0.118417,0 -0.226091,-0.0268 -0.322977,-0.0806 -0.09689,-0.0538 -0.174097,-0.13313 -0.231511,-0.2372 -0.05383,-0.10406 -0.08062,-0.23117 -0.08062,-0.38189 0,-0.14712 0.02679,-0.27107 0.08062,-0.37155 0.05741,-0.10406 0.134624,-0.18285 0.231511,-0.23668 0.09689,-0.0538 0.20456,-0.0811 0.322977,-0.0811 0.118417,0 0.227671,0.0326 0.328146,0.0971 0.100474,0.061 0.185035,0.15975 0.253214,0.29611 l 0.791166,-0.40359 c -0.100475,-0.25478 -0.271174,-0.45227 -0.511596,-0.59222 -0.240422,-0.13994 -0.525631,-0.2098 -0.855762,-0.2098 z m 6.992338,0 c -0.319366,0 -0.602995,0.0646 -0.850594,0.19378 -0.247599,0.1256 -0.442992,0.30103 -0.586528,0.5271 -0.139947,0.22607 -0.210323,0.48659 -0.210323,0.78083 0,0.29425 0.07038,0.55583 0.210323,0.78549 0.143536,0.22606 0.338929,0.40411 0.586528,0.5333 0.247599,0.12918 0.531228,0.19378 0.850594,0.19378 0.319366,0 0.602479,-0.0646 0.850077,-0.19378 0.251187,-0.12919 0.447097,-0.30724 0.587045,-0.5333 0.139947,-0.22966 0.209806,-0.49124 0.209806,-0.78549 0,-0.29424 -0.06986,-0.55476 -0.209806,-0.78083 -0.139948,-0.22607 -0.335858,-0.4015 -0.587045,-0.5271 -0.247598,-0.12918 -0.530711,-0.19378 -0.850077,-0.19378 z m 6.419246,0.0481 1.248498,2.95072 c -0.0397,0.075 -0.0831,0.13723 -0.13384,0.17673 -0.0646,0.0502 -0.15283,0.0754 -0.264064,0.0754 -0.07894,0 -0.159829,-0.0163 -0.242362,-0.0486 -0.07895,-0.0287 -0.148804,-0.0697 -0.209806,-0.12351 l -0.355017,0.71572 c 0.09689,0.0789 0.22242,0.14145 0.376721,0.1881 0.157889,0.0502 0.313888,0.0755 0.468188,0.0755 0.19377,0 0.36973,-0.0284 0.527612,-0.0858 0.16148,-0.0574 0.30697,-0.15825 0.43615,-0.30179 0.13277,-0.13994 0.24938,-0.33534 0.34985,-0.58652 l 1.25936,-3.03599 h -0.9741 l -0.72089,1.78283 -0.716232,-1.78283 z m -6.419246,0.76429 c 0.118417,0 0.222416,0.0273 0.312126,0.0811 0.0933,0.0538 0.166832,0.13262 0.220658,0.23668 0.05383,0.10048 0.08061,0.22443 0.08061,0.37155 0,0.14713 -0.02679,0.27424 -0.08061,0.38189 -0.05383,0.10407 -0.12736,0.18337 -0.220658,0.2372 -0.08971,0.0538 -0.193709,0.0806 -0.312126,0.0806 -0.114828,0 -0.218828,-0.0268 -0.312126,-0.0806 -0.08971,-0.0538 -0.163244,-0.13313 -0.220658,-0.2372 -0.05383,-0.10765 -0.08113,-0.23476 -0.08113,-0.38189 0,-0.14712 0.02731,-0.27107 0.08113,-0.37155 0.05741,-0.10406 0.130949,-0.18285 0.220658,-0.23668 0.0933,-0.0538 0.197298,-0.0811 0.312126,-0.0811 z m -13.046749,0.004 c -0.109813,0.0657 -0.373147,0.27056 -0.397392,0.40152 -0.01127,0.0608 0.05559,0.11438 0.09302,0.15245 0.100615,0.10237 0.202491,0.20332 0.304374,0.30437 0.0387,0.0384 0.09207,0.10801 0.152446,0.10801 0.05528,0 0.102744,-0.0589 0.138492,-0.094 0.09642,-0.0948 0.207089,-0.18816 0.276986,-0.30489 -0.220031,-0.14631 -0.425886,-0.34369 -0.567924,-0.56741 z m 23.454895,0.98702 c -0.17224,0 -0.31721,0.0557 -0.43563,0.16691 -0.11841,0.10765 -0.17777,0.25314 -0.17777,0.43615 0,0.17583 0.0594,0.32081 0.17777,0.43563 0.11842,0.11483 0.26339,0.1726 0.43563,0.1726 0.17225,0 0.31774,-0.0578 0.43615,-0.1726 0.11842,-0.11482 0.17777,-0.2598 0.17777,-0.43563 0,-0.18301 -0.0593,-0.3285 -0.17777,-0.43615 -0.11841,-0.11124 -0.2639,-0.16691 -0.43615,-0.16691 z" /></g></svg>
