<?xml version="1.0" encoding="UTF-8" standalone="no"?>
<!-- Created with Inkscape (http://www.inkscape.org/) -->

<svg
   width="525.03436mm"
   height="530.0719mm"
   viewBox="0 0 525.03436 530.0719"
   version="1.1"
   id="svg1"
   xml:space="preserve"
   xmlns:inkscape="http://www.inkscape.org/namespaces/inkscape"
   xmlns:sodipodi="http://sodipodi.sourceforge.net/DTD/sodipodi-0.dtd"
   xmlns:xlink="http://www.w3.org/1999/xlink"
   xmlns="http://www.w3.org/2000/svg"
   xmlns:svg="http://www.w3.org/2000/svg"><sodipodi:namedview
     id="namedview1"
     pagecolor="#505050"
     bordercolor="#eeeeee"
     borderopacity="1"
     inkscape:showpageshadow="0"
     inkscape:pageopacity="0"
     inkscape:pagecheckerboard="0"
     inkscape:deskcolor="#505050"
     inkscape:document-units="mm" /><defs
     id="defs1"><linearGradient
       id="linearGradient1"
       inkscape:collect="always"><stop
         style="stop-color:#4f46e5;stop-opacity:1;"
         offset="0"
         id="stop1" /><stop
         style="stop-color:#4338ca;stop-opacity:1;"
         offset="1"
         id="stop2" /></linearGradient><linearGradient
       inkscape:collect="always"
       xlink:href="#linearGradient1"
       id="linearGradient2"
       x1="2817"
       y1="10322.823"
       x2="17699.861"
       y2="10322.823"
       gradientUnits="userSpaceOnUse" /><linearGradient
       inkscape:collect="always"
       xlink:href="#linearGradient1"
       id="linearGradient3"
       gradientUnits="userSpaceOnUse"
       x1="2817"
       y1="10322.823"
       x2="17699.861"
       y2="10322.823" /><linearGradient
       inkscape:collect="always"
       xlink:href="#linearGradient1"
       id="linearGradient4"
       gradientUnits="userSpaceOnUse"
       x1="2817"
       y1="10322.823"
       x2="17699.861"
       y2="10322.823" /><linearGradient
       inkscape:collect="always"
       xlink:href="#linearGradient1"
       id="linearGradient5"
       gradientUnits="userSpaceOnUse"
       x1="2817"
       y1="10322.823"
       x2="17699.861"
       y2="10322.823" /><linearGradient
       inkscape:collect="always"
       xlink:href="#linearGradient1"
       id="linearGradient6"
       gradientUnits="userSpaceOnUse"
       x1="2817"
       y1="10322.823"
       x2="17699.861"
       y2="10322.823" /><linearGradient
       inkscape:collect="always"
       xlink:href="#linearGradient1"
       id="linearGradient7"
       gradientUnits="userSpaceOnUse"
       x1="2817"
       y1="10322.823"
       x2="17699.861"
       y2="10322.823" /><linearGradient
       inkscape:collect="always"
       xlink:href="#linearGradient1"
       id="linearGradient8"
       gradientUnits="userSpaceOnUse"
       x1="2817"
       y1="10322.823"
       x2="17699.861"
       y2="10322.823" /></defs><g
     inkscape:label="Ebene 1"
     inkscape:groupmode="layer"
     id="layer1"
     transform="translate(-560.01222,139.35885)"><g
       transform="matrix(0.03527778,0,0,-0.03527778,460.63468,489.84335)"
       fill="#000000"
       stroke="none"
       id="g22"
       style="fill:url(#linearGradient2);fill-opacity:1"><path
         d="m 9885,17830 c -215,-7 -518,-37 -775,-76 -689,-105 -1602,-403 -2225,-728 -520,-272 -821,-467 -1260,-820 -458,-369 -807,-724 -1216,-1236 -508,-637 -943,-1440 -1204,-2224 -200,-598 -296,-1098 -376,-1946 -16,-168 -16,-778 0,-960 84,-973 300,-1767 711,-2605 168,-343 231,-452 417,-723 264,-386 521,-681 707,-810 101,-71 314,-140 553,-179 57,-9 101,-19 98,-21 -12,-12 -118,-45 -217,-67 -152,-34 -235,-82 -264,-152 -19,-44 -18,-147 2,-214 46,-157 168,-252 360,-280 130,-20 349,28 495,109 41,22 94,48 119,58 25,10 110,56 190,102 80,47 165,96 189,109 23,14 95,56 158,94 63,38 133,79 156,90 137.3749,25.3072 186.139,-13.824 242,-23 11,-11 -140,-129 -275,-215 -163,-104 -304,-215 -356,-280 -21,-26 -48,-58 -61,-71 -21,-21 -23,-21 -23,-4 0,29 -56,110 -89,126 -72,38 -183,10 -266,-65 -64,-59 -88,-115 -89,-203 0,-94 8.0339,-138.5932 106.4746,-229.8644 34,-23 86,-70.1356 116,-96.1356 112.9277,-94.1064 115.872,-107.4852 285.2442,-230.1579 171.2692,-113.8352 290.0339,-169.2542 563.0339,-321.2542 C 7155.7527,3461.5879 7548,3277 7985,3145 c 743,-225 1477,-336 2220,-335 570,1 1006,40 1535,136 612,111 1477,425 2068,750 377,208 788,466 1022,641 240,181 450,337 524,391 123,88 180.351,146.5055 136.093,296.6703 -33.127,95.1115 -128.37,164.0118 -275.093,125.3297 -384.65,-212.6179 -654.513,-331.9461 -1116,-524 -282.098,-122.4668 -106.034,-45.2881 -424,-196 -707.982,-327.928 -780.873,-350.351 -1315,-530 -312,-104 -939,-240 -1340,-289 -315,-39 -459,-45 -1030,-46 -530,0 -562,1 -705,23 -640,98 -967,190 -1600,450 -177,73 -235,102 -372,184 -45,27 -70.2363,38.6594 -120,59 -55,12 -201.0927,54.3786 -311.7527,1.8352 C 6826.345,4256.7665 6809,4210 6740,4139 c -84.0606,-91.8957 -127.322,-107.4746 -202.322,-107.4746 -121,0 -204.1695,51.4238 -387.1695,173.4238 -101,68 -181.7205,171.4786 -198.4746,164.8983 -86.776,-34.0819 167.1749,21.7154 238.9661,69.1525 57,40 67,57 110,176 21,56 40,78 320,355 281,279 278.5916,274.6002 317.9322,330.8475 65.3074,-2.5958 71.2093,-7.4056 161.0678,-25.8475 335.0151,-77.3894 330.7551,-75.2804 624,-134 142.3516,-13.5055 217,-32 334,-88 50,-24 92,-45 92,-48 0,-2 -39,12 -87,31 -182,73 -234,79 -318,40 -75,-34 -135,-108 -205,-252 l -61,-123 -127,6 c -110,5 -132,3 -162,-12 -109,-55 -142,-155 -81,-244 26,-40 55,-60 171,-122 60,-33 200,-21 286,24 43,22 97,98 137,193 44.118,93.6345 25.1255,69.9597 78,155 44,70 93,109 133,109 19,0 67,-14 107,-31 41,-17 106,-41 144,-54 39,-13 102,-36 140,-51 58,-23 86,-28 165,-28 87,-1 100,2 147,28 240.4894,182.0472 -81.4557,436.1875 447,4 79,-66 109,-105 168,-223 51,-100 168,-369 168,-385 0,-22 64,-147 110,-216 114,-168 163,-198 330,-199 103,0 108,1 182,38 85,42 142,98 178,175 19,40 22,59 18,132 -4,72 -13,104 -55,210 -89,221 -98,304 -41,357 53,48 110,54 278,28 528,-80 945,-244 1313,-517 186,-137 276,-160 396,-99 89,45 134,84 182,157 146,224 85,454 -154,580 -57,30 -91,41 -162,50 -49,6 -74,12 -55,13 19,0 51,6 71,11 33,9 40,18 69,83 37,80 43,154 26,295 l -9,72 h 82 c 98,0 179,-25 260,-78 79,-53 242,-212 319,-312 139,-180 186,-215 292,-212 36,0 95,10 131,21 253.518,64.5553 249.127,265.4931 159,395 -29.831,42.8644 -98,107 -191,110 -48,1 -64,-4 -117,-37 -33,-20 -74,-40 -91,-43 -35,-7 -46,-1 -221,141 -265,215 -383,290 -537,341 -231,76 -492,129 -758,154 -60,5 -140,13 -177,17 -38,3 -68,10 -68,14 0,5 8.015,8.4531 18,9 95.482,5.2301 105.694,-1.6946 202,-2 264.801,-6.1154 777.324,221.9206 893.55,309.3722 213.042,191.3508 242.053,307.1819 279.096,466.335 38.779,166.6141 44.277,234.4775 17.422,325.0047 139.629,341.1774 108.523,353.8342 347.932,791.2881 40,74 106,200 145,279 66,132 72,151 75,217 3,42 -1,80 -7,93 -32,60 -178,122 -318,136 -47,5 -48.071,4.3297 -52.071,13.3297 -6,16 32.093,212.4121 41.093,226.4121 17,28 133.978,6.2582 362.978,-79.7418 291,-109 407,-183 466,-295 20,-39 23,-60 23,-155 0,-122 -18,-190 -93,-351 -73,-155 -281,-507 -467,-792 -43.711,-66.4721 -183.966,-278.8569 -321,-444 -195,-235 -293,-377 -293,-422 0,-76 83,-140 227,-176 192,-48 435,-81 703,-95 146,-8 366,-22 489,-32 272.897,-48.6396 459.479,-59.0285 736,-140 100,-31 145,-85 145,-172 v -49 l -47,-16 c -69,-24 -190,-31 -265,-16 -67,13 -134,39 -372,144 -223,99 -303,121 -496,140 -577,56 -678,74 -980,171 -179,58 -180,58 -180,46 0,-6 16,-29 36,-51 83,-92 224,-160 439,-214 58,-14 327,-59 661,-110 204,-31 260,-54 389,-155 163,-127 429,-275 552,-305 199,-50 355,15 402,169 26,84 26,121 1,221 -31,122 -71,193 -163,290 -114,120 -248,197 -395,225 -34,6 -296,14 -657,18 -242.609,5.4489 -843.041,-7.0305 -679,186 207.772,215.1043 521,580 734,1100 136,332 226,612 260,804 15,87 13,226 -5,284 -27,88 -85,185 -144,239 -159,146 -723,325 -1037,329 l -129,1 -7,-38 c -4,-22 -14,-90 -23,-152 -38,-267 -136,-699 -216,-954 -107,-341 -298,-769 -439,-983 -245,-372 -444,-583 -710,-757 -84,-55 -350,-198 -367,-198 -4,0 28,24 72,53 316,205 664,557 877,887 169,262 278,467 376,711 114,282 158,440 251,904 124,621 161,980 161,1580 0,223 11,339 41,429 28,84 101,236 151,315 89,142 260,360 397,506 37,39 165,180 286,315 121,135 249,277 285,315 36,39 137,153 225,254 88,100 190,216 227,258 101,116 158,244 158,359 0,131 -90,305 -215,415 -74,65 -92,75 -398,223 l -117,57 c -231.333,241.488 60.635,375.958 -132,1007 -67,191 -188,394 -302,508 -163,163 -415,278 -724,329 -283,47 -588,-21 -836,-186 -270,-180 -433,-399 -546,-731 -50,-148 -82,-194 -169,-237 -129,-65 -543,-191 -729,-221 -56,-9 -76,-9 -87,0 -8,7 -47,55 -87,109 -216,286 -461,452 -903,609 -231,83 -414,115 -650,116 -257,1 -454,-36 -688,-130 -196,-78 -336,-172 -488,-327 -325,-330 -478,-814 -399,-1255 21,-115 136,-466 202,-617 64,-146 63,-141 22,-231 -122,-268 -143,-303 -254,-417 -164,-170 -217,-255 -251,-406 -45,-206 -3,-430 112,-597 66,-95 150,-173 250,-231 67,-39 79,-50 79,-72 0,-45 -54,-172 -155,-367 -234,-451 -425,-841 -454,-929 -55,-167 -75,-332 -108,-910 l -8,-130 -60,-8 c -183,-25 -324,-54 -435,-89 -268,-85 -530,-214 -688,-340 -118,-94 -242,-273 -291,-418 -22,-66 -25,-92 -25,-225 -1,-170 12,-225 85,-365 119,-229 459,-543 929,-857 157,-105 210,-155 194,-181 -33,-55 -178,-86 -378,-80 -123,3 -135,5 -198,35 -84,40 -166,122 -322,323 -361,467 -547,800 -749,1345 -71,193 -207,594 -240,710 -41,144 -114,460 -136,585 -11,63 -25,138 -30,166 -22,112 -52,354 -77,619 -25,252 -27,322 -28,705 -1,451 2,489 64,935 48,346 130,715 241,1083 134,448 370,967 665,1462 346,582 843,1151 1434,1641 166,138 251,200 475,351 428,287 785,473 1245,649 436,168 895,288 1310,344 434,58 1079,69 1500,25 511,-53 1156,-212 1606,-395 487,-198 803,-361 1169,-604 488,-324 961,-740 1360,-1196 95,-108 335,-425 432,-570 563,-843 898,-1725 1043,-2755 50,-349 63,-543 64,-965 1,-567 -40,-973 -155,-1525 -153,-730 -345,-1298 -611,-1810 -168,-323 -237,-433 -452,-719 -197,-262 -188,-247 -182,-310 12,-123 72,-179 215,-202 142,-22 239,15 420,161 173,139 424,425 644,732 430,600 839,1492 1032,2250 45,176 124,584 155,798 53,373 74,956 50,1420 -13,239 -20,302 -71,650 -111,763 -285,1351 -614,2080 -162,358 -476,891 -728,1235 -832,1135 -1985,2026 -3277,2532 -433,170 -948,316 -1430,407 -477,89 -1080,127 -1685,106 z m 2692,-2729 c 25,-7 24,-8 -23,-28 -112,-47 -231,-161 -281,-270 -137,-296 2,-804 316,-1160 82,-93 222,-201 296,-228 100,-37 74,-49 -30,-14 -170,56 -408,247 -516,412 -149,229 -223,470 -223,727 0,156 12,220 62,335 61,140 130,212 227,236 31,8 126,2 172,-10 z m -470,-89 c -24,-26 -61,-117 -80,-192 -29,-117 -40,-240 -34,-365 18,-346 119,-613 318,-841 92,-105 168,-158 384,-267 179,-90 242,-116 315,-128 72,-12 311,6 450,34 169,34 167,35 393,-78 148,-74 218,-115 275,-163 76,-62 105,-103 86,-121 -5,-5 -126,-38 -269,-74 -143,-37 -325,-85 -405,-107 -80,-22 -201,-56 -270,-74 -69,-19 -190,-53 -270,-76 -80,-23 -226,-63 -326,-90 -212,-57 -793,-230 -1009,-300 -465,-151 -771,-252 -855,-283 -52,-19 -144,-53 -205,-75 -139,-51 -561,-210 -905,-342 -146,-56 -312,-119 -370,-140 -58,-21 -152,-57 -210,-80 -58,-24 -143,-55 -190,-70 -47,-15 -148,-51 -225,-80 -77,-29 -203,-72 -280,-97 -77,-25 -189,-62 -250,-83 -275,-95 -512,-143 -700,-144 -109,0 -140,4 -194,23 -151,53 -248,165 -274,315 -8,52 -7,73 11,142 31,124 94,275 176,422 40,73 95,187 121,252 26,66 51,120 55,120 4,0 33,-28 63,-63 123,-140 319,-254 520,-302 104,-26 123,-27 267,-22 244,9 448,57 713,168 324,136 502,276 662,520 164,249 205,367 205,594 0,125 -31,412 -56,524 -31,134 -122,391 -155,436 -4,6 -19,33 -34,60 -70,128 -238,318 -357,404 -27,19 -46,36 -44,39 9,8 171,-51 251,-91 156,-77 377,-244 475,-358 89,-103 177,-240 238,-369 61,-131 124,-224 179,-268 152,-119 282,-121 705,-12 543,141 567,145 878,135 388,-13 417,-13 437,8 28,28 41,19 -354,258 -304,184 -444,314 -529,489 -35,73 -39,126 -15,213 31,114 95,211 212,323 124,117 404,291 473,293 18,1 18,0 3,-17 z m 998,-377 c 72,-32 110,-67 144,-137 54,-107 37,-214 -40,-253 -49,-26 -127,-30 -195,-10 -168,49 -221,272 -93,392 51,48 92,50 184,8 z m -385,2 c 38,-19 70,-91 70,-158 0,-48 -5,-63 -27,-90 -52,-62 -153,-80 -198,-35 -63,63 -56,187 15,258 31,31 45,38 76,38 22,0 50,-6 64,-13 z m -4111,-153 c 392,-58 679,-273 869,-650 97,-191 162,-526 149,-759 -7,-112 -71,-386 -113,-482 -109,-246 -392,-469 -749,-593 -254,-87 -431,-100 -638,-46 -220,57 -384,154 -552,328 -159,164 -262,338 -339,574 -125,381 -53,784 201,1126 100,135 173,210 289,296 186,140 343,201 564,222 98,9 173,5 319,-16 z m 5672,-1804 c 6,-40 -12,-94 -43,-127 -43,-46 -435,-185 -1058,-376 -268,-83 -371,-115 -885,-279 -394,-125 -1167,-386 -1400,-473 -336,-125 -1564,-533 -1945,-646 -242,-73 -303,-89 -435,-119 -390,-88 -634,-107 -930,-72 -163,19 -355,58 -355,73 0,3 109,9 243,12 250,5 336,16 547,68 137,34 672,208 975,317 154,56 381,137 505,181 250,89 329,118 537,197 660,251 1861,659 2438,828 119,35 412,122 840,249 512,153 743,207 870,204 l 90,-2 z m -2535,-2024 c 98,-46 192,-193 218,-342 87,-496 97,-961 31,-1429 -71,-499 -359,-1384 -620,-1906 -63,-125 -206,-376 -266,-466 -108,-159 -344,-328 -765,-544 -121,-62 -234,-123 -253,-135 l -34,-23 -30,62 c -100.531,266.0127 -208.802,458.4542 -308,659 -22,46 -54,123 -70,171 -26,78 -28,93 -19,135 14,61 59,179 122,317 28,61 64,139 80,175 274,600 289,629 518,1020 540,918 586,1006 731,1408 191,527 362,817 531,901 54,27 71,26 134,-3 z m -4248,-442 c 20,-8 62,-21 92,-28 48,-11 55,-16 52,-34 -11,-72 -187,-678 -256,-877 -40,-117 -123,-497 -165,-757 -32,-191 -81,-564 -81,-608 0,-55 -9,-62 -37,-26 -10,13 -47.0639,55.7054 -93,76 -31.9268,14.1052 -40.1266,18.1406 -140,65 -35,18 -39,29 -29,80 4,22 12,90 19,150 16,162 165,895 230,1141 52,191 168,533 206,602 80,145 136,232 150,232 8,0 31,-7 52,-16 z m 2518,-166 c 59,-63 95,-178 96,-303 1,-156 -28,-222 -215,-497 -69,-101 -171,-257 -227,-348 -56,-91 -133,-213 -172,-272 C 9368.0412,8414.4559 9272.5683,8181.797 9163.8242,7956.9176 9132.1388,7884.4794 9131.9849,7875.7897 9123,7850 c -35.2746,49.971 -67.2077,72.1151 -164,196 -81,132 -201,284 -289,368 l -65,61 50,25 c 116,58 351,280 481,453 103,137 254,380 399,642 181,325 223,394 281,453 l 53,55 52,-5 c 46,-5 58,-11 95,-50 z m -1369,-92 c 51,-17 92,-34 93,-38 0,-5 -15,-29 -34,-55 -19,-27 -79,-124 -134,-216 -159,-265 -255,-364 -529,-545 -67,-45 -168,-121 -225,-170 -225,-193 -283,-287 -354,-573 -119,-478 -118,-727 3,-1169 63,-232 107,-363 170,-513 167,-398 466,-889 729,-1197 39,-47 140,-184 223,-305 l 131,-236 c 0,4 -55,57 -123,119 -222,200 -351,345 -514,578 -263,377 -446,708 -579,1052 -120,309 -211,769 -215,1088 -2,120 6,162 93,482 106,396 162,508 337,682 140,138 198,230 329,520 163,360 271,570 305,591 5,4 53,-9 106,-28 53,-19 137,-49 188,-67 z m 202,-799 c -37,-34 -113,-105 -170,-158 -84,-78 -115,-115 -161,-193 -32,-53 -58,-100 -58,-105 0,-5 -34,-7 -77,-4 -237,16 -483,-162 -483,-349 0,-86 112,-417 233,-688 141,-316 341,-693 525,-984 51,-82 153,-240 227,-350 194,-293 314,-498 528,-903 163,-307 286,-478 362,-503 75,-25 214,45 236,118 20,68 -8,150 -181,532 -22,47 -73,168 -113,270 -206,512 -297,720 -415,950 -41,80 -131,255 -200,390 -149,293 -204,394 -330,605 -183,308 -227,370 -371,518 -52,53 -91,100 -88,103 10,11 181,-49 212,-74 103,-81 251,-286 390,-537 48,-88 96,-171 105,-185 22,-31 62,-107 252,-470 198,-378 350,-689 433,-885 37,-88 89,-209 115,-270 26,-60 62,-143 78,-183 48,-116 86,-167 145,-196 50,-25 56,-26 256,-26 286,0 459,-23 900,-116 91,-19 243,-51 336,-70 109,-23 190,-45 225,-63 84,-43 128,-125 81,-151 -46,-24 -233,-7 -656,60 -395,63 -547,91 -696,129 -167,42 -297,66 -306,58 -14,-15 121,-141 223,-209 108,-72 565,-286 824,-385 270,-103 410,-143 555,-158 62,-7 165,-30 193,-44 100,-47 119,-60 153,-103 47,-60 58,-115 32,-160 -38,-66 -115,-94 -207,-77 -26,5 -121,45 -210,88 -175,86 -375,181 -381,181 -2,0 -82,34 -177,76 -383,169 -639,237 -883,235 -112,0 -195,-16 -236,-45 -138,-96 -220,-252 -218,-418 0,-73 20,-176 43,-229 6,-14 -9,-21 -101,-42 -191,-45 -174,-47 -216,15 -37,54 -79,143 -182,388 -74,177 -103,234 -179,349 -35,53 -93,141 -129,196 -36,55 -102,150 -147,210 -248,337 -622,905 -758,1152 -290,527 -496,951 -548,1123 -50,168 -77,440 -63,625 21,261 90,401 254,510 67,44 312,175 328,175 3,0 49,21 103,46 53,25 122,55 153,68 58,24 215,97 380,178 53,25 103,47 111,47 8,0 -15,-27 -51,-62 z M 6352,7786 c 131,-18 323,-67 443,-113 128,-48 333,-153 370,-188 35,-33 61,-122 90,-307 21,-137 21,-136 -22,-98 -20,18 -109,67 -197,110 -89,42 -235,116 -326,165 -173,92 -550,281 -610,306 -19,8 -66,14 -105,14 -58,0 -78,-5 -117,-27 -56,-34 -90,-85 -92,-140 -1,-48 21,-69 168,-170 148,-101 213,-152 361,-286 221,-200 289,-268 420,-417 177,-203 303,-316 496,-446 94,-63 119,-78 249,-147 47,-25 103,-58 125,-73 42,-30 108,-85 89,-76 -6,3 -24,8 -40,11 -80.4813,29.5471 -170.7075,47.5773 -259,73 -370,48 -773,281 -1370,793 -55,47 -165,140 -245,206 -289,240 -358,349 -302,476 46,104 344,291 532,333 41,9 80,19 85,21 16,6 142,-4 257,-20 z M 5551,6572 c 118,-60 241,-124 274,-142 33,-18 89,-48 125,-68 36,-19 70,-38 75,-42 6,-4 30,-19 55,-32 25,-14 61,-34 80,-45 19,-11 64,-35 100,-53 36,-19 76,-41 90,-50 14,-10 50,-30 80,-47 118,-64 158,-88 240,-138 113,-69 175,-100 295,-147 55,-21 86.9177,-25.0647 75,-33 -82.3677,-54.8437 -111.5609,-60.1115 -221,-39 -19,12 -73,36 -120,54 -109,42 -323,136 -374,165 -22,12 -84,46 -137,74 -265,139 -342,187 -508,313 -145,110 -371,306 -378,328 -9,25 50,2 249,-98 z m 861,-1054 c -9,-39 -33,-68 -106,-129 -137,-115 -359,-206 -601,-244 -137,-22 -508,-32 -561,-15 -56,18 -84,47 -84,87 0,32 4,36 58,61 57,27 58,27 297,27 211,1 252,4 345,24 224,48 327,81 513,162 129,56 148,59 139,27 z"
         id="path2"
         style="fill:url(#linearGradient3);fill-opacity:1" /><path
         d="m 11685,13190 c -73,-23 -109,-86 -103,-179 6,-85 28,-125 86,-162 74,-47 111,-54 193,-39 120,21 176,91 167,206 -6,65 -42,116 -108,153 -35,20 -61,25 -125,28 -44,1 -94,-2 -110,-7 z"
         id="path3"
         style="fill:url(#linearGradient4);fill-opacity:1" /><path
         d="m 11064,12981 c -52,-24 -74,-55 -74,-104 0,-81 60,-157 124,-157 135,0 216,125 148,228 -34,53 -122,67 -198,33 z"
         id="path4"
         style="fill:url(#linearGradient5);fill-opacity:1" /><path
         d="m 8274,14360 c -105,-15 -281,-85 -389,-153 -265,-167 -459,-463 -529,-809 -25,-122 -21,-323 8,-461 56,-257 165,-443 364,-621 263,-235 569,-333 882,-282 308,50 592,200 738,389 112,145 199,361 223,554 41,328 -134,780 -415,1072 -230,239 -566,357 -882,311 z m -103,-531 c 21,-7 54,-27 74,-44 35,-32 35,-33 35,-117 0,-189 -60,-270 -200,-272 -59,-1 -70,2 -112,33 -62,44 -88,98 -88,178 0,97 28,145 113,192 36,20 91,37 126,40 7,1 31,-4 52,-10 z m 534,-29 c 142,-45 229,-94 302,-168 66,-66 89,-118 77,-167 -9,-37 -108,-121 -192,-163 -64,-31 -85,-36 -163,-40 -154,-8 -248,22 -341,106 -58,53 -68,78 -68,180 0,143 38,233 115,272 54,28 140,21 270,-20 z"
         id="path5"
         style="fill:url(#linearGradient6);fill-opacity:1" /><path
         d="m 12798,5539 c 12,-14 22,-35 22,-48 0,-32 26,-77 57,-99 16,-10 68,-40 116,-66 164,-88 289,-176 377,-265 112,-113 256,-238 302,-262 47,-24 153,-25 227,-3 64,19 128,74 184,159 38,59 39,62 34,131 -3,38 -12,87 -20,107 -23,54 -95,121 -152,140 -70,24 -200,22 -311,-4 l -90,-22 -95,31 c -52,17 -193,64 -314,105 -121,41 -245,80 -275,87 -30,7 -62,18 -70,24 -8,5 -5,-1 8,-15 z"
         id="path14"
         style="fill:url(#linearGradient7);fill-opacity:1" /><path
         d="m 7290,5085 c -72,-20 -129,-49 -225,-112 -112,-74 -187,-137 -290,-242 -43,-44 -86,-83 -95,-86 -9,-3 -43,8 -76,25 -78,39 -126,39 -204,0 -62,-31 -83,-57 -107,-135 -25,-79 -18,-111 36,-165 67,-67 120,-92 207,-98 185,-12 398,119 513,316 26,44 64,90 103,124 127,110 192,175 233,233 65,93 68,118 12,134 -18,5 -39,11 -47,14 -8,3 -35,-1 -60,-8 z"
         id="path15"
         style="fill:url(#linearGradient8);fill-opacity:1" /></g></g></svg>
